<svg xmlns="http://www.w3.org/2000/svg" viewBox="0 0 64 64" role="img" aria-label="Cinema 4D">
  <circle cx="32" cy="32" r="29" fill="url(#outer)" filter="url(#shadow)"/>
  <path d="M13.2 50.5C4.5 34.1 12.7 12.1 34.2 7.4c10.7-2.3 21.5 2 24.8 8.8 2.5 5.2-1.7 9.1-8.7 9.5-11.4.7-20 5.5-25.9 14.2-4 5.8-7.3 9.3-11.2 10.6z" fill="url(#whiteShell)"/>
  <path d="M50.7 23.4c5.6.7 9.4 5.1 9.4 10.8 0 13.8-11 25-25.4 25-7.6 0-14.8-3.1-19.7-8.3 7.5-1.8 13.5-6.7 17.7-14.8 4-7.6 9.2-11.7 18-12.7z" fill="url(#sideShell)"/>
  <circle cx="36.5" cy="31.8" r="17.5" fill="url(#blueSphere)"/>
  <path d="M20.9 46.1c7.1 8.7 23.3 9.2 31.4-1.2-6.1 14.3-27.2 15.8-37.2 6.1 2.5-.8 4.4-2.3 5.8-4.9z" fill="#e9edf5" opacity=".86"/>
  <defs>
    <radialGradient id="outer" cx="0" cy="0" r="1" gradientUnits="userSpaceOnUse" gradientTransform="translate(20 16) rotate(45) scale(52)">
      <stop stop-color="#ffffff"/>
      <stop offset=".38" stop-color="#dfe6f5"/>
      <stop offset=".68" stop-color="#5266bd"/>
      <stop offset="1" stop-color="#071139"/>
    </radialGradient>
    <linearGradient id="whiteShell" x1="16" y1="11" x2="43" y2="45" gradientUnits="userSpaceOnUse">
      <stop stop-color="#ffffff"/>
      <stop offset=".62" stop-color="#f6f7fb"/>
      <stop offset="1" stop-color="#d8dfef"/>
    </linearGradient>
    <linearGradient id="sideShell" x1="52" y1="23" x2="35" y2="58" gradientUnits="userSpaceOnUse">
      <stop stop-color="#ffffff"/>
      <stop offset=".48" stop-color="#eef1f8"/>
      <stop offset="1" stop-color="#c3cce1"/>
    </linearGradient>
    <radialGradient id="blueSphere" cx="0" cy="0" r="1" gradientUnits="userSpaceOnUse" gradientTransform="translate(31 24) rotate(53) scale(27)">
      <stop stop-color="#e9f6ff"/>
      <stop offset=".22" stop-color="#78a8ff"/>
      <stop offset=".58" stop-color="#203083"/>
      <stop offset="1" stop-color="#050717"/>
    </radialGradient>
    <filter id="shadow" x="-20%" y="-20%" width="140%" height="140%">
      <feDropShadow dx="0" dy="3" stdDeviation="2" flood-color="#000" flood-opacity=".35"/>
    </filter>
  </defs>
</svg>
