<svg xmlns="http://www.w3.org/2000/svg" viewBox="0 0 64 64" role="img" aria-label="Octane Render">
  <g fill="#050505" stroke="#ffffff" stroke-width=".45" stroke-linejoin="round" transform="translate(32 32) scale(.78)">
    <path d="M-3.2-8.3C-2.1-17.1 2.8-25.8 13.3-31l5.5 5.2c-5.8 6.1-8.3 12.1-7.9 18.2 5.8-2.8 13.2-3.3 22.3-1.1l1.4 7.2c-8.4 1.1-14.4 3.8-18.2 8.1 6.5 1.6 12.3 6.1 17.3 13.7l-3.8 6.3c-7.5-3.8-14-5.1-19.4-3.5 2.6 6.1 2.2 13.5-1.1 22L2 46.3c-2.2-8.2-5.8-13.8-10.7-16.8-3.2 5.8-9.4 10-18.6 12.6l-5.1-5.4c6.2-5.8 9.5-11.5 9.7-17.2-6.7.4-13.6-2.2-20.8-7.8l.5-7.4c8.4 1.1 14.9.1 19.4-3.2-4.7-4.7-7.3-11.6-7.8-20.6l6.4-3.8c4.5 7.3 9.5 12.1 15.1 14.3 1.4-.2 3.7.2 6.7.7z"/>
    <circle cx="0" cy="0" r="8.2" fill="#f5f5f5" stroke="#050505" stroke-width="2.4"/>
  </g>
</svg>
